STARTFONT 2.1
COMMENT This font is still under development.
COMMENT You can use, copy, modify, distribute this file for free.
COMMENT
COMMENT This font was created by modifying fg-20.bdf distributed with
COMMENT X.V11R3 under the directory contrib/fonts/bdf/oldx11.
COMMENT The comment below is the original one.
COMMENT -------------------------------------------------------------
COMMENT the Lisp Machine name for this font was "20fg.ast"
COMMENT -------------------------------------------------------------
COMMENT 91.12.14 modified by K.Handa <handa@etl.go.jp>
COMMENT   - ISO8859-1 Latin-1 glyphs are added.
COMMENT This font is very suitable when used with:
COMMENT   -jis-fixed-medium-r-normal--24-230-75-75-c-240-jisx0208.1983-0
COMMENT 92.06.23 modified by Takahashi N. <ntakahas@etl.go.jp>
COMMENT 92.07.09 modified by Takahashi N. <ntakahas@etl.go.jp>
COMMENT   - all BBX are changed to 12 24 0 -2
COMMENT 94.09.14 modified by Takahashi N. <ntakahas@etl.go.jp>
COMMENT 99.01.18 modified from etl24-latin1.bdf by <handa@etl.go.jp>
FONT -Etl-Fixed-Bold-I-Normal--24-240-72-72-C-120-ISO8859-1
SIZE 24 72 72
FONTBOUNDINGBOX 12 24 0 -2
STARTPROPERTIES 19
FONTNAME_REGISTRY ""
FOUNDRY "ETL"
FAMILY_NAME "Fixed"
WEIGHT_NAME "Bold"
SLANT "I"
SETWIDTH_NAME "Normal"
ADD_STYLE_NAME ""
PIXEL_SIZE 24
POINT_SIZE 240
RESOLUTION_X 72
RESOLUTION_Y 72
SPACING "C"
AVERAGE_WIDTH 120
CHARSET_REGISTRY "ISO8859"
CHARSET_ENCODING "1"
DEFAULT_CHAR 32
FONT_DESCENT 2
FONT_ASCENT 22
_MULE_BASELINE_OFFSET -3
ENDPROPERTIES
CHARS 191
STARTCHAR SPACE
ENCODING 32
SWIDTH 500 0
DWIDTH 12 0
BBX 12 24 0 -2
BITMAP
0000
0000
0000
0000
0000
0000
0000
0000
0000
0000
0000
0000
0000
0000
0000
0000
0000
0000
0000
0000
0000
0000
0000
0000
ENDCHAR
STARTCHAR EXCLAMATION MARK
ENCODING 33
SWIDTH 500 0
DWIDTH 12 0
BBX 12 24 0 -2
BITMAP
0000
0000
0000
0000
0000
0380
0380
0380
0700
0700
0700
0700
0e00
0e00
0e00
0000
0000
1c00
3e00
1c00
0000
0000
0000
0000
ENDCHAR
STARTCHAR QUOTATION MARK
ENCODING 34
SWIDTH 500 0
DWIDTH 12 0
BBX 12 24 0 -2
BITMAP
0000
0000
0000
0000
0ee0
0ee0
0ee0
0ee0
1dc0
0000
0000
0000
0000
0000
0000
0000
0000
0000
0000
0000
0000
0000
0000
0000
ENDCHAR
STARTCHAR NUMBER SIGN
ENCODING 35
SWIDTH 500 0
DWIDTH 12 0
BBX 12 24 0 -2
BITMAP
0000
0000
0000
0000
0000
0770
0770
0770
3ff0
3ff0
1dc0
1dc0
3b80
3b80
ffc0
ffc0
ee00
ee00
ee00
0000
0000
0000
0000
0000
ENDCHAR
STARTCHAR DOLLAR SIGN
ENCODING 36
SWIDTH 500 0
DWIDTH 12 0
BBX 12 24 0 -2
BITMAP
0000
0000
0000
0000
0000
0380
0fe0
1ff8
7770
7700
3f00
1fc0
0fc0
0ee0
0ee0
eee0
ff80
ff00
1c00
0000
0000
0000
0000
0000
ENDCHAR
STARTCHAR PERCENT SIGN
ENCODING 37
SWIDTH 500 0
DWIDTH 12 0
BBX 12 24 0 -2
BITMAP
0000
0000
0000
0000
0000
1e70
3f70
3fe0
7fc0
3f80
0380
0700
0e00
1c00
1fc0
3fe0
7fc0
efc0
e780
0000
0000
0000
0000
0000
ENDCHAR
STARTCHAR AMPERSAND
ENCODING 38
SWIDTH 500 0
DWIDTH 12 0
BBX 12 24 0 -2
BITMAP
0000
0000
0000
0000
0000
03c0
07e0
0ff0
1ce0
1dc0
0fc0
1f80
7e00
f7e0
e3e0
e3c0
c700
ffc0
7dc0
0000
0000
0000
0000
0000
ENDCHAR
STARTCHAR APOSTROPHE
ENCODING 39
SWIDTH 500 0
DWIDTH 12 0
BBX 12 24 0 -2
BITMAP
0000
0000
0000
01c0
07c0
07c0
01c0
01c0
0700
0e00
0000
0000
0000
0000
0000
0000
0000
0000
0000
0000
0000
0000
0000
0000
ENDCHAR
STARTCHAR LEFT PARENTHESIS
ENCODING 40
SWIDTH 500 0
DWIDTH 12 0
BBX 12 24 0 -2
BITMAP
0000
0000
0000
0000
0000
00e0
01c0
03c0
0700
0f00
0e00
0e00
1c00
1c00
1e00
0e00
1e00
0e00
0700
0000
0000
0000
0000
0000
ENDCHAR
STARTCHAR RIGHT PARENTHESIS
ENCODING 41
SWIDTH 500 0
DWIDTH 12 0
BBX 12 24 0 -2
BITMAP
0000
0000
0000
0000
0000
0e00
0700
0780
0700
0780
0380
0380
0700
0700
0f00
0e00
3c00
3800
7000
0000
0000
0000
0000
0000
ENDCHAR
STARTCHAR ASTERISK
ENCODING 42
SWIDTH 500 0
DWIDTH 12 0
BBX 12 24 0 -2
BITMAP
0000
0000
0000
0000
0000
0000
0000
0380
0700
7770
7ff0
1fc0
0e00
3f80
ffe0
eee0
1c00
1c00
0000
0000
0000
0000
0000
0000
ENDCHAR
STARTCHAR PLUS SIGN
ENCODING 43
SWIDTH 500 0
DWIDTH 12 0
BBX 12 24 0 -2
BITMAP
0000
0000
0000
0000
0000
0000
0000
0000
0700
0700
0700
0700
ffe0
ffe0
0e00
0e00
1c00
1c00
0000
0000
0000
0000
0000
0000
ENDCHAR
STARTCHAR COMMA
ENCODING 44
SWIDTH 500 0
DWIDTH 12 0
BBX 12 24 0 -2
BITMAP
0000
0000
0000
0000
0000
0000
0000
0000
0000
0000
0000
0000
0000
0000
0000
0e00
3e00
3e00
0e00
0e00
1c00
3800
0000
0000
ENDCHAR
STARTCHAR HYPHEN, MINUS SIGN
ENCODING 45
SWIDTH 500 0
DWIDTH 12 0
BBX 12 24 0 -2
BITMAP
0000
0000
0000
0000
0000
0000
0000
0000
0000
0000
0000
0000
ffe0
ffe0
0000
0000
0000
0000
0000
0000
0000
0000
0000
0000
ENDCHAR
STARTCHAR FULL STOP
ENCODING 46
SWIDTH 500 0
DWIDTH 12 0
BBX 12 24 0 -2
BITMAP
0000
0000
0000
0000
0000
0000
0000
0000
0000
0000
0000
0000
0000
0000
0000
0e00
3e00
3e00
1c00
0000
0000
0000
0000
0000
ENDCHAR
STARTCHAR SOLIDUS
ENCODING 47
SWIDTH 500 0
DWIDTH 12 0
BBX 12 24 0 -2
BITMAP
0000
0000
0000
0000
0000
0070
0070
00e0
01c0
0380
0380
0700
0e00
1c00
1c00
3800
7000
e000
e000
0000
0000
0000
0000
0000
ENDCHAR
STARTCHAR DIGIT ZERO
ENCODING 48
SWIDTH 500 0
DWIDTH 12 0
BBX 12 24 0 -2
BITMAP
0000
0000
0000
0000
0000
07c0
0fe0
1ef0
38e0
39e0
3be0
3fe0
7dc0
79c0
71c0
71c0
f780
7f00
3e00
0000
0000
0000
0000
0000
ENDCHAR
STARTCHAR DIGIT ONE
ENCODING 49
SWIDTH 500 0
DWIDTH 12 0
BBX 12 24 0 -2
BITMAP
0000
0000
0000
0000
0000
0380
0780
0f80
3f00
0700
0700
0700
0e00
0e00
0e00
0e00
1c00
ff80
ff80
0000
0000
0000
0000
0000
ENDCHAR
STARTCHAR DIGIT TWO
ENCODING 50
SWIDTH 500 0
DWIDTH 12 0
BBX 12 24 0 -2
BITMAP
0000
0000
0000
0000
0000
0fc0
1fe0
38f0
70e0
00e0
01c0
0380
0e00
1c00
3800
7000
c000
ff80
ff80
0000
0000
0000
0000
0000
ENDCHAR
STARTCHAR DIGIT THREE
ENCODING 51
SWIDTH 500 0
DWIDTH 12 0
BBX 12 24 0 -2
BITMAP
0000
0000
0000
0000
0000
0fc0
1fe0
38f0
70e0
00e0
01c0
0f80
1f80
01c0
01c0
e1c0
c780
ff00
7e00
0000
0000
0000
0000
0000
ENDCHAR
STARTCHAR DIGIT FOUR
ENCODING 52
SWIDTH 500 0
DWIDTH 12 0
BBX 12 24 0 -2
BITMAP
0000
0000
0000
0000
0000
0380
0380
0700
0e00
1f80
1f80
3b80
7700
e700
ffc0
ffc0
0e00
0e00
0e00
0000
0000
0000
0000
0000
ENDCHAR
STARTCHAR DIGIT FIVE
ENCODING 53
SWIDTH 500 0
DWIDTH 12 0
BBX 12 24 0 -2
BITMAP
0000
0000
0000
0000
0000
3fe0
3fe0
3800
7000
7000
7f80
7fc0
03c0
01c0
01c0
e1c0
c780
ff00
7e00
0000
0000
0000
0000
0000
ENDCHAR
STARTCHAR DIGIT SIX
ENCODING 54
SWIDTH 500 0
DWIDTH 12 0
BBX 12 24 0 -2
BITMAP
0000
0000
0000
0000
0000
0fc0
1fe0
3c70
70e0
7000
7f80
7fc0
f3c0
e1c0
e1c0
e1c0
e780
ff00
7e00
0000
0000
0000
0000
0000
ENDCHAR
STARTCHAR DIGIT SEVEN
ENCODING 55
SWIDTH 500 0
DWIDTH 12 0
BBX 12 24 0 -2
BITMAP
0000
0000
0000
0000
0000
3ff0
3ff0
00e0
01c0
0380
0380
0700
0e00
1c00
1c00
3800
7000
e000
e000
0000
0000
0000
0000
0000
ENDCHAR
STARTCHAR DIGIT EIGHT
ENCODING 56
SWIDTH 500 0
DWIDTH 12 0
BBX 12 24 0 -2
BITMAP
0000
0000
0000
0000
0000
07c0
0fe0
1c70
38e0
38e0
1fc0
1fc0
7bc0
f1e0
e0e0
e0e0
e3c0
ff80
7f00
0000
0000
0000
0000
0000
ENDCHAR
STARTCHAR DIGIT NINE
ENCODING 57
SWIDTH 500 0
DWIDTH 12 0
BBX 12 24 0 -2
BITMAP
0000
0000
0000
0000
0000
0fc0
1fe0
3cf0
70e0
70e0
79e0
3fe0
3fc0
01c0
01c0
e1c0
c780
ff00
7e00
0000
0000
0000
0000
0000
ENDCHAR
STARTCHAR COLON
ENCODING 58
SWIDTH 500 0
DWIDTH 12 0
BBX 12 24 0 -2
BITMAP
0000
0000
0000
0000
0000
0000
0000
0000
0700
0f80
0f80
0700
0000
0000
0000
0e00
3e00
3e00
1c00
0000
0000
0000
0000
0000
ENDCHAR
STARTCHAR SEMICOLON
ENCODING 59
SWIDTH 500 0
DWIDTH 12 0
BBX 12 24 0 -2
BITMAP
0000
0000
0000
0000
0000
0000
0000
0000
0700
0f80
0f80
0700
0000
0000
0000
0e00
3e00
3e00
0e00
0e00
1c00
3800
0000
0000
ENDCHAR
STARTCHAR LESS-THAN SIGN
ENCODING 60
SWIDTH 500 0
DWIDTH 12 0
BBX 12 24 0 -2
BITMAP
0000
0000
0000
0000
0000
0000
0000
0000
0070
01e0
0780
1f00
f800
f800
3e00
0f80
0780
01c0
0000
0000
0000
0000
0000
0000
ENDCHAR
STARTCHAR EQUALS SIGN
ENCODING 61
SWIDTH 500 0
DWIDTH 12 0
BBX 12 24 0 -2
BITMAP
0000
0000
0000
0000
0000
0000
0000
0000
0000
0000
7ff0
7ff0
0000
0000
ffe0
ffe0
0000
0000
0000
0000
0000
0000
0000
0000
ENDCHAR
STARTCHAR GREATER-THAN SIGN
ENCODING 62
SWIDTH 500 0
DWIDTH 12 0
BBX 12 24 0 -2
BITMAP
0000
0000
0000
0000
0000
0000
0000
0000
7000
3c00
0f00
07c0
03e0
03e0
0f80
1e00
f000
c000
0000
0000
0000
0000
0000
0000
ENDCHAR
STARTCHAR QUESTION MARK
ENCODING 63
SWIDTH 500 0
DWIDTH 12 0
BBX 12 24 0 -2
BITMAP
0000
0000
0000
0000
0000
07c0
0fe0
1ef0
30e0
00e0
01c0
0380
0e00
0e00
0e00
0000
0000
1c00
3e00
1c00
0000
0000
0000
0000
ENDCHAR
STARTCHAR COMMERCIAL AT
ENCODING 64
SWIDTH 500 0
DWIDTH 12 0
BBX 12 24 0 -2
BITMAP
0000
0000
0000
0000
0000
0fc0
1fe0
3c70
70e0
77e0
7fe0
7ee0
fdc0
fdc0
ffc0
ef80
e000
ff80
7f80
0000
0000
0000
0000
0000
ENDCHAR
STARTCHAR CAPITAL LETTER A
ENCODING 65
SWIDTH 500 0
DWIDTH 12 0
BBX 12 24 0 -2
BITMAP
0000
0000
0000
0000
0000
07e0
0ff0
1e70
3870
3870
3870
3ff0
7fe0
70e0
70e0
70e0
e1c0
e1c0
e1c0
0000
0000
0000
0000
0000
ENDCHAR
STARTCHAR CAPITAL LETTER B
ENCODING 66
SWIDTH 500 0
DWIDTH 12 0
BBX 12 24 0 -2
BITMAP
0000
0000
0000
0000
0000
1fc0
1fe0
1cf0
38e0
38e0
39c0
3fc0
7fc0
71c0
70e0
70e0
e3c0
ff80
ff00
0000
0000
0000
0000
0000
ENDCHAR
STARTCHAR CAPITAL LETTER C
ENCODING 67
SWIDTH 500 0
DWIDTH 12 0
BBX 12 24 0 -2
BITMAP
0000
0000
0000
0000
0000
0fc0
1fe0
3cf0
70e0
7000
7000
7000
e000
e000
e000
e1c0
e780
ff00
7e00
0000
0000
0000
0000
0000
ENDCHAR
STARTCHAR CAPITAL LETTER D
ENCODING 68
SWIDTH 500 0
DWIDTH 12 0
BBX 12 24 0 -2
BITMAP
0000
0000
0000
0000
0000
1fe0
1ff0
1c70
3870
3870
3870
3870
70e0
70e0
70e0
f0e0
e3c0
ff80
ff00
0000
0000
0000
0000
0000
ENDCHAR
STARTCHAR CAPITAL LETTER E
ENCODING 69
SWIDTH 500 0
DWIDTH 12 0
BBX 12 24 0 -2
BITMAP
0000
0000
0000
0000
0000
1ff0
1ff0
1c00
3800
3800
3800
3fc0
7f80
7000
7000
7000
e000
ffc0
ffc0
0000
0000
0000
0000
0000
ENDCHAR
STARTCHAR CAPITAL LETTER F
ENCODING 70
SWIDTH 500 0
DWIDTH 12 0
BBX 12 24 0 -2
BITMAP
0000
0000
0000
0000
0000
1ff0
1ff0
1c00
3800
3800
3800
3fc0
7f80
7000
7000
7000
e000
e000
e000
0000
0000
0000
0000
0000
ENDCHAR
STARTCHAR CAPITAL LETTER G
ENCODING 71
SWIDTH 500 0
DWIDTH 12 0
BBX 12 24 0 -2
BITMAP
0000
0000
0000
0000
0000
07e0
0ff0
1e70
3870
3800
3800
3800
73e0
73e0
70e0
70e0
73c0
7f80
3f00
0000
0000
0000
0000
0000
ENDCHAR
STARTCHAR CAPITAL LETTER H
ENCODING 72
SWIDTH 500 0
DWIDTH 12 0
BBX 12 24 0 -2
BITMAP
0000
0000
0000
0000
0000
1c70
1c70
1c70
38e0
38e0
38e0
3fe0
7fc0
71c0
71c0
71c0
e380
e380
e380
0000
0000
0000
0000
0000
ENDCHAR
STARTCHAR CAPITAL LETTER I
ENCODING 73
SWIDTH 500 0
DWIDTH 12 0
BBX 12 24 0 -2
BITMAP
0000
0000
0000
0000
0000
0fe0
0fe0
0380
0700
0700
0700
0700
0e00
0e00
0e00
0e00
1c00
7f00
7f00
0000
0000
0000
0000
0000
ENDCHAR
STARTCHAR CAPITAL LETTER J
ENCODING 74
SWIDTH 500 0
DWIDTH 12 0
BBX 12 24 0 -2
BITMAP
0000
0000
0000
0000
0000
0070
0070
0070
00e0
00e0
00e0
00e0
01c0
01c0
01c0
e1c0
c780
ff00
7e00
0000
0000
0000
0000
0000
ENDCHAR
STARTCHAR CAPITAL LETTER K
ENCODING 75
SWIDTH 500 0
DWIDTH 12 0
BBX 12 24 0 -2
BITMAP
0000
0000
0000
0000
0000
1c30
1c70
1ce0
3b80
3f00
3e00
3c00
7c00
7e00
7700
7380
e380
e1c0
e0c0
0000
0000
0000
0000
0000
ENDCHAR
STARTCHAR CAPITAL LETTER L
ENCODING 76
SWIDTH 500 0
DWIDTH 12 0
BBX 12 24 0 -2
BITMAP
0000
0000
0000
0000
0000
1c00
1c00
1c00
3800
3800
3800
3800
7000
7000
7000
7000
e000
ffc0
ffc0
0000
0000
0000
0000
0000
ENDCHAR
STARTCHAR CAPITAL LETTER M
ENCODING 77
SWIDTH 500 0
DWIDTH 12 0
BBX 12 24 0 -2
BITMAP
0000
0000
0000
0000
0000
3870
3cf0
3cf0
7fe0
7fe0
7fe0
7fe0
edc0
e1c0
e1c0
e1c0
c380
c380
c380
0000
0000
0000
0000
0000
ENDCHAR
STARTCHAR CAPITAL LETTER N
ENCODING 78
SWIDTH 500 0
DWIDTH 12 0
BBX 12 24 0 -2
BITMAP
0000
0000
0000
0000
0000
3870
3c70
3c70
7ce0
7ce0
7ee0
7ee0
efc0
efc0
e7c0
e7c0
c780
c780
c380
0000
0000
0000
0000
0000
ENDCHAR
STARTCHAR CAPITAL LETTER O
ENCODING 79
SWIDTH 500 0
DWIDTH 12 0
BBX 12 24 0 -2
BITMAP
0000
0000
0000
0000
0000
0fc0
1fe0
3cf0
3870
3070
7070
70e0
70e0
e0e0
e0c0
e1c0
f3c0
7f80
3f00
0000
0000
0000
0000
0000
ENDCHAR
STARTCHAR CAPITAL LETTER P
ENCODING 80
SWIDTH 500 0
DWIDTH 12 0
BBX 12 24 0 -2
BITMAP
0000
0000
0000
0000
0000
1fe0
1ff0
1c70
3870
3870
38f0
3fe0
7f80
7000
7000
7000
e000
e000
e000
0000
0000
0000
0000
0000
ENDCHAR
STARTCHAR CAPITAL LETTER Q
ENCODING 81
SWIDTH 500 0
DWIDTH 12 0
BBX 12 24 0 -2
BITMAP
0000
0000
0000
0000
0000
07e0
0ff0
1e70
3870
3870
3870
3870
70e0
70e0
70e0
73e0
77c0
7f80
3fc0
00c0
0000
0000
0000
0000
ENDCHAR
STARTCHAR CAPITAL LETTER R
ENCODING 82
SWIDTH 500 0
DWIDTH 12 0
BBX 12 24 0 -2
BITMAP
0000
0000
0000
0000
0000
1fe0
1ff0
1c70
3870
3870
38f0
3fe0
7f80
7380
7380
71c0
e380
e1c0
e1c0
0000
0000
0000
0000
0000
ENDCHAR
STARTCHAR CAPITAL LETTER S
ENCODING 83
SWIDTH 500 0
DWIDTH 12 0
BBX 12 24 0 -2
BITMAP
0000
0000
0000
0000
0000
0fc0
1fe0
38f0
70e0
7000
7800
3f80
3f80
03c0
01c0
e1c0
c780
ff00
fe00
0000
0000
0000
0000
0000
ENDCHAR
STARTCHAR CAPITAL LETTER T
ENCODING 84
SWIDTH 500 0
DWIDTH 12 0
BBX 12 24 0 -2
BITMAP
0000
0000
0000
0000
0000
7ff0
7ff0
0700
0e00
0e00
0e00
0e00
1c00
1c00
1c00
1c00
3800
3800
3800
0000
0000
0000
0000
0000
ENDCHAR
STARTCHAR CAPITAL LETTER U
ENCODING 85
SWIDTH 500 0
DWIDTH 12 0
BBX 12 24 0 -2
BITMAP
0000
0000
0000
0000
0000
3870
3870
3870
70e0
70e0
70e0
70e0
e1c0
e1c0
e1c0
e1c0
e780
ff00
7e00
0000
0000
0000
0000
0000
ENDCHAR
STARTCHAR CAPITAL LETTER V
ENCODING 86
SWIDTH 500 0
DWIDTH 12 0
BBX 12 24 0 -2
BITMAP
0000
0000
0000
0000
0000
e070
e070
e0e0
e0e0
e1c0
71c0
7380
7700
7700
7600
3e00
3c00
3800
3800
0000
0000
0000
0000
0000
ENDCHAR
STARTCHAR CAPITAL LETTER W
ENCODING 87
SWIDTH 500 0
DWIDTH 12 0
BBX 12 24 0 -2
BITMAP
0000
0000
0000
0000
0000
3870
3870
3870
70e0
70e0
70e0
76e0
ffc0
ffc0
ffc0
ffc0
e780
e780
c380
0000
0000
0000
0000
0000
ENDCHAR
STARTCHAR CAPITAL LETTER X
ENCODING 88
SWIDTH 500 0
DWIDTH 12 0
BBX 12 24 0 -2
BITMAP
0000
0000
0000
0000
0000
3870
3870
1ce0
39c0
1f80
1f80
0f00
1e00
3f00
3f00
7380
e700
c380
c380
0000
0000
0000
0000
0000
ENDCHAR
STARTCHAR CAPITAL LETTER Y
ENCODING 89
SWIDTH 500 0
DWIDTH 12 0
BBX 12 24 0 -2
BITMAP
0000
0000
0000
0000
0000
e030
e070
70e0
71c0
3b80
3f00
1e00
1c00
1c00
1c00
1c00
3800
3800
3800
0000
0000
0000
0000
0000
ENDCHAR
STARTCHAR CAPITAL LETTER Z
ENCODING 90
SWIDTH 500 0
DWIDTH 12 0
BBX 12 24 0 -2
BITMAP
0000
0000
0000
0000
0000
3ff8
3ff8
0038
00f0
01e0
03c0
0780
1e00
3c00
7800
f000
c000
ffc0
ffc0
0000
0000
0000
0000
0000
ENDCHAR
STARTCHAR LEFT SQUARE BRACKET
ENCODING 91
SWIDTH 500 0
DWIDTH 12 0
BBX 12 24 0 -2
BITMAP
0000
0000
0000
0000
0fc0
0fc0
0e00
0e00
1c00
1c00
1c00
1c00
3800
3800
3800
3800
7000
7e00
7e00
0000
0000
0000
0000
0000
ENDCHAR
STARTCHAR REVERSE SOLIDUS
ENCODING 92
SWIDTH 500 0
DWIDTH 12 0
BBX 12 24 0 -2
BITMAP
0000
0000
0000
0000
0000
1c00
1c00
0e00
1c00
0e00
0e00
0700
0e00
0700
0700
0380
0700
0380
0380
0000
0000
0000
0000
0000
ENDCHAR
STARTCHAR RIGHT SQUARE BRACKET
ENCODING 93
SWIDTH 500 0
DWIDTH 12 0
BBX 12 24 0 -2
BITMAP
0000
0000
0000
0000
0fc0
0fc0
01c0
01c0
0380
0380
0380
0380
0700
0700
0700
0700
0e00
7e00
7e00
0000
0000
0000
0000
0000
ENDCHAR
STARTCHAR CIRCUMFLEX ACCENT
ENCODING 94
SWIDTH 500 0
DWIDTH 12 0
BBX 12 24 0 -2
BITMAP
0000
0000
0000
0000
0300
0780
0fc0
1ce0
70e0
0000
0000
0000
0000
0000
0000
0000
0000
0000
0000
0000
0000
0000
0000
0000
ENDCHAR
STARTCHAR LOW LINE
ENCODING 95
SWIDTH 500 0
DWIDTH 12 0
BBX 12 24 0 -2
BITMAP
0000
0000
0000
0000
0000
0000
0000
0000
0000
0000
0000
0000
0000
0000
0000
0000
0000
0000
0000
0000
ffc0
ffc0
0000
0000
ENDCHAR
STARTCHAR GRAVE ACCENT
ENCODING 96
SWIDTH 500 0
DWIDTH 12 0
BBX 12 24 0 -2
BITMAP
0000
0000
0000
00e0
0380
0700
0700
07c0
0f80
0700
0000
0000
0000
0000
0000
0000
0000
0000
0000
0000
0000
0000
0000
0000
ENDCHAR
STARTCHAR SMALL LETTER a
ENCODING 97
SWIDTH 500 0
DWIDTH 12 0
BBX 12 24 0 -2
BITMAP
0000
0000
0000
0000
0000
0000
0000
0000
07c0
0fe0
1c70
0070
0fe0
3fe0
70e0
f1e0
e7c0
ffc0
7dc0
0000
0000
0000
0000
0000
ENDCHAR
STARTCHAR SMALL LETTER b
ENCODING 98
SWIDTH 500 0
DWIDTH 12 0
BBX 12 24 0 -2
BITMAP
0000
0000
0000
0000
0000
1c00
1c00
1c00
3800
3bc0
3fe0
3ef0
78e0
70e0
70e0
78e0
fbc0
ff80
ef00
0000
0000
0000
0000
0000
ENDCHAR
STARTCHAR SMALL LETTER c
ENCODING 99
SWIDTH 500 0
DWIDTH 12 0
BBX 12 24 0 -2
BITMAP
0000
0000
0000
0000
0000
0000
0000
0000
0000
0fe0
1fe0
3c70
70e0
7000
7000
7000
71c0
7fc0
3f80
0000
0000
0000
0000
0000
ENDCHAR
STARTCHAR SMALL LETTER d
ENCODING 100
SWIDTH 500 0
DWIDTH 12 0
BBX 12 24 0 -2
BITMAP
0000
0000
0000
0000
0000
0070
0070
0070
00e0
1fe0
3fe0
79e0
e1c0
e1c0
e1c0
e3c0
ef80
ff80
7b80
0000
0000
0000
0000
0000
ENDCHAR
STARTCHAR SMALL LETTER e
ENCODING 101
SWIDTH 500 0
DWIDTH 12 0
BBX 12 24 0 -2
BITMAP
0000
0000
0000
0000
0000
0000
0000
0000
0000
0fc0
1fe0
3c70
70e0
7fe0
ffe0
f000
e1c0
7fc0
3f80
0000
0000
0000
0000
0000
ENDCHAR
STARTCHAR SMALL LETTER f
ENCODING 102
SWIDTH 500 0
DWIDTH 12 0
BBX 12 24 0 -2
BITMAP
0000
0000
0000
0000
0000
03c0
07c0
0700
0e00
0e00
3f80
3f80
1c00
1c00
1c00
1c00
3800
3800
3800
0000
0000
0000
0000
0000
ENDCHAR
STARTCHAR SMALL LETTER g
ENCODING 103
SWIDTH 500 0
DWIDTH 12 0
BBX 12 24 0 -2
BITMAP
0000
0000
0000
0000
0000
0000
0000
0000
0000
1ee0
3fe0
7be0
e3c0
e1c0
e1c0
e1c0
e780
ff80
7f80
0380
0380
0380
7f00
3e00
ENDCHAR
STARTCHAR SMALL LETTER h
ENCODING 104
SWIDTH 500 0
DWIDTH 12 0
BBX 12 24 0 -2
BITMAP
0000
0000
0000
0000
0000
1c00
1c00
1c00
3800
3bc0
3fe0
3ef0
78e0
70e0
70e0
70e0
e1c0
e1c0
e1c0
0000
0000
0000
0000
0000
ENDCHAR
STARTCHAR SMALL LETTER i
ENCODING 105
SWIDTH 500 0
DWIDTH 12 0
BBX 12 24 0 -2
BITMAP
0000
0000
0000
0000
0000
0380
0380
0000
0000
0700
0700
0700
0e00
0e00
0e00
0e00
1c00
1c00
1c00
0000
0000
0000
0000
0000
ENDCHAR
STARTCHAR SMALL LETTER j
ENCODING 106
SWIDTH 500 0
DWIDTH 12 0
BBX 12 24 0 -2
BITMAP
0000
0000
0000
0000
0000
01c0
01c0
0000
0000
0380
0380
0380
0700
0700
0700
0700
0e00
0e00
0e00
1e00
1c00
7c00
7800
0000
ENDCHAR
STARTCHAR SMALL LETTER k
ENCODING 107
SWIDTH 500 0
DWIDTH 12 0
BBX 12 24 0 -2
BITMAP
0000
0000
0000
0000
0000
0000
1c00
1c00
38e0
39e0
3bc0
3f80
7e00
7c00
7e00
7f00
ef00
e780
e380
0000
0000
0000
0000
0000
ENDCHAR
STARTCHAR SMALL LETTER l
ENCODING 108
SWIDTH 500 0
DWIDTH 12 0
BBX 12 24 0 -2
BITMAP
0000
0000
0000
0000
0000
0380
0380
0380
0700
0700
0700
0700
0e00
0e00
0e00
0e00
1c00
1f00
0f00
0000
0000
0000
0000
0000
ENDCHAR
STARTCHAR SMALL LETTER m
ENCODING 109
SWIDTH 500 0
DWIDTH 12 0
BBX 12 24 0 -2
BITMAP
0000
0000
0000
0000
0000
0000
0000
0000
3800
3ff0
3ff0
3bb0
7770
7770
7770
7770
eee0
eee0
eee0
0000
0000
0000
0000
0000
ENDCHAR
STARTCHAR SMALL LETTER n
ENCODING 110
SWIDTH 500 0
DWIDTH 12 0
BBX 12 24 0 -2
BITMAP
0000
0000
0000
0000
0000
0000
0000
0000
0000
3bc0
3fe0
3e70
78f0
70e0
70e0
70e0
e1c0
e1c0
e1c0
0000
0000
0000
0000
0000
ENDCHAR
STARTCHAR SMALL LETTER o
ENCODING 111
SWIDTH 500 0
DWIDTH 12 0
BBX 12 24 0 -2
BITMAP
0000
0000
0000
0000
0000
0000
0000
0000
0000
0fc0
1fe0
3cf0
70e0
70e0
70e0
70e0
73c0
7f80
3f00
0000
0000
0000
0000
0000
ENDCHAR
STARTCHAR SMALL LETTER p
ENCODING 112
SWIDTH 500 0
DWIDTH 12 0
BBX 12 24 0 -2
BITMAP
0000
0000
0000
0000
0000
0000
0000
0000
0000
3bc0
3fe0
3ee0
78e0
70e0
70e0
78e0
7bc0
7f80
6f00
e000
e000
e000
e000
0000
ENDCHAR
STARTCHAR SMALL LETTER q
ENCODING 113
SWIDTH 500 0
DWIDTH 12 0
BBX 12 24 0 -2
BITMAP
0000
0000
0000
0000
0000
0000
0000
0000
0000
0f70
1ff0
3df0
71e0
70e0
70e0
71e0
77c0
7fc0
3dc0
01c0
0380
0380
0380
0000
ENDCHAR
STARTCHAR SMALL LETTER r
ENCODING 114
SWIDTH 500 0
DWIDTH 12 0
BBX 12 24 0 -2
BITMAP
0000
0000
0000
0000
0000
0000
0000
0000
0000
3bc0
3fe0
3e70
78e0
7000
7000
7000
e000
e000
e000
0000
0000
0000
0000
0000
ENDCHAR
STARTCHAR SMALL LETTER s
ENCODING 115
SWIDTH 500 0
DWIDTH 12 0
BBX 12 24 0 -2
BITMAP
0000
0000
0000
0000
0000
0000
0000
0000
0000
1fe0
3ff0
3830
7000
3f80
1fc0
00e0
e1c0
ffc0
7f80
0000
0000
0000
0000
0000
ENDCHAR
STARTCHAR SMALL LETTER t
ENCODING 116
SWIDTH 500 0
DWIDTH 12 0
BBX 12 24 0 -2
BITMAP
0000
0000
0000
0000
0000
0000
0700
0700
0e00
3f80
3f80
0e00
1c00
1c00
1c00
1c00
3800
3e00
1e00
0000
0000
0000
0000
0000
ENDCHAR
STARTCHAR SMALL LETTER u
ENCODING 117
SWIDTH 500 0
DWIDTH 12 0
BBX 12 24 0 -2
BITMAP
0000
0000
0000
0000
0000
0000
0000
0000
0000
70e0
70e0
70e0
e1c0
e1c0
e1c0
e3c0
ef80
ff80
7b80
0000
0000
0000
0000
0000
ENDCHAR
STARTCHAR SMALL LETTER v
ENCODING 118
SWIDTH 500 0
DWIDTH 12 0
BBX 12 24 0 -2
BITMAP
0000
0000
0000
0000
0000
0000
0000
0000
0000
7070
7070
38e0
71c0
3b80
3b80
1f00
3e00
1c00
1c00
0000
0000
0000
0000
0000
ENDCHAR
STARTCHAR SMALL LETTER w
ENCODING 119
SWIDTH 500 0
DWIDTH 12 0
BBX 12 24 0 -2
BITMAP
0000
0000
0000
0000
0000
0000
0000
0000
0000
3870
3870
3870
70e0
76e0
7fe0
ffe0
ffc0
f3c0
e1c0
0000
0000
0000
0000
0000
ENDCHAR
STARTCHAR SMALL LETTER x
ENCODING 120
SWIDTH 500 0
DWIDTH 12 0
BBX 12 24 0 -2
BITMAP
0000
0000
0000
0000
0000
0000
0000
0000
0000
70e0
70e0
39c0
3f00
1e00
1e00
3f00
e700
c380
c380
0000
0000
0000
0000
0000
ENDCHAR
STARTCHAR SMALL LETTER y
ENCODING 121
SWIDTH 500 0
DWIDTH 12 0
BBX 12 24 0 -2
BITMAP
0000
0000
0000
0000
0000
0000
0000
0000
0000
3870
3870
3870
70e0
70e0
70e0
70e0
63c0
7fc0
3fc0
01c0
0380
0780
ff00
7e00
ENDCHAR
STARTCHAR SMALL LETTER z
ENCODING 122
SWIDTH 500 0
DWIDTH 12 0
BBX 12 24 0 -2
BITMAP
0000
0000
0000
0000
0000
0000
0000
0000
0000
3ff0
3ff0
00e0
0380
0700
0e00
1c00
7000
ffc0
ffc0
0000
0000
0000
0000
0000
ENDCHAR
STARTCHAR LEFT CURLY BRACKET
ENCODING 123
SWIDTH 500 0
DWIDTH 12 0
BBX 12 24 0 -2
BITMAP
0000
0000
0000
0000
01e0
0380
0380
0380
0700
0700
0e00
1e00
1c00
0e00
0e00
0e00
1c00
1c00
0f00
0000
0000
0000
0000
0000
ENDCHAR
STARTCHAR VERTICAL LINE
ENCODING 124
SWIDTH 500 0
DWIDTH 12 0
BBX 12 24 0 -2
BITMAP
0000
01c0
01c0
01c0
0380
0380
0380
0380
0700
0700
0700
0700
0e00
0e00
0e00
0e00
1c00
1c00
1c00
1c00
3800
3800
3800
0000
ENDCHAR
STARTCHAR RIGHT CURLY BRACKET
ENCODING 125
SWIDTH 500 0
DWIDTH 12 0
BBX 12 24 0 -2
BITMAP
0000
0000
0000
0000
0f00
0380
0380
0380
0700
0700
0380
03c0
0700
0e00
0e00
0e00
1c00
1c00
7800
0000
0000
0000
0000
0000
ENDCHAR
STARTCHAR TILDE
ENCODING 126
SWIDTH 500 0
DWIDTH 12 0
BBX 12 24 0 -2
BITMAP
0000
0000
0000
0000
1e30
3f70
37f0
71e0
0000
0000
0000
0000
0000
0000
0000
0000
0000
0000
0000
0000
0000
0000
0000
0000
ENDCHAR
STARTCHAR NO-BREAK SPACE                                                ,A (B
ENCODING 160
SWIDTH 500 0
DWIDTH 12 0
BBX 12 24 0 -2
BITMAP
0000
0000
0000
0000
0000
0000
0000
0000
0000
0000
0000
0000
0000
0000
0000
0000
0000
0000
0000
0000
0000
0000
0000
0000
ENDCHAR
STARTCHAR INVERTED EXCLAMATION MARK
ENCODING 161
SWIDTH 500 0
DWIDTH 12 0
BBX 12 24 0 -2
BITMAP
0000
0000
0000
0000
0380
07c0
0380
0000
0000
0700
0700
0700
0e00
0e00
0e00
0e00
1c00
1c00
1c00
0000
0000
0000
0000
0000
ENDCHAR
STARTCHAR CENT SIGN
ENCODING 162
SWIDTH 500 0
DWIDTH 12 0
BBX 12 24 0 -2
BITMAP
0000
0000
0000
0000
0000
0380
0380
0fc0
3fc0
7fe0
77e0
7700
ee00
efc0
ffc0
7f80
7e00
1c00
1c00
0000
0000
0000
0000
0000
ENDCHAR
STARTCHAR POUND SIGN
ENCODING 163
SWIDTH 500 0
DWIDTH 12 0
BBX 12 24 0 -2
BITMAP
0000
0000
0000
0000
0000
07c0
0fe0
1ee0
3800
3800
3c00
7fc0
ff80
3800
3800
7f00
ff00
e780
c380
0000
0000
0000
0000
0000
ENDCHAR
STARTCHAR CURRENCY SIGN
ENCODING 164
SWIDTH 500 0
DWIDTH 12 0
BBX 12 24 0 -2
BITMAP
0000
0000
0000
0000
0000
0000
0000
3838
7ff0
3fe0
1dc0
38e0
71c0
3b80
7fc0
ffe0
c1c0
0000
0000
0000
0000
0000
0000
0000
ENDCHAR
STARTCHAR YEN SIGN
ENCODING 165
SWIDTH 500 0
DWIDTH 12 0
BBX 12 24 0 -2
BITMAP
0000
0000
0000
0000
0000
1c70
1ef0
0ee0
1fc0
0f80
3fe0
3fe0
0e00
7fc0
7fc0
0e00
1c00
1c00
1c00
0000
0000
0000
0000
0000
ENDCHAR
STARTCHAR BROKEN BAR
ENCODING 166
SWIDTH 500 0
DWIDTH 12 0
BBX 12 24 0 -2
BITMAP
0000
01c0
01c0
01c0
0380
0380
0380
0380
0700
0700
0700
0000
0000
0e00
0e00
0e00
1c00
1c00
1c00
1c00
3800
3c00
3800
0000
ENDCHAR
STARTCHAR PARAGRAPH SIGN
ENCODING 167
SWIDTH 500 0
DWIDTH 12 0
BBX 12 24 0 -2
BITMAP
0000
0000
0000
0000
0fc0
1fe0
3cf0
3870
7800
3f80
3fc0
70e0
e1c0
7f80
3f80
03c0
c380
e780
ff00
7e00
0000
0000
0000
0000
ENDCHAR
STARTCHAR DIAERESIS
ENCODING 168
SWIDTH 500 0
DWIDTH 12 0
BBX 12 24 0 -2
BITMAP
0000
0e70
0e70
0000
0000
0000
0000
0000
0000
0000
0000
0000
0000
0000
0000
0000
0000
0000
0000
0000
0000
0000
0000
0000
ENDCHAR
STARTCHAR COPYRIGHT SIGN
ENCODING 169
SWIDTH 500 0
DWIDTH 12 0
BBX 12 24 0 -2
BITMAP
0000
0000
0000
0000
0fc0
1fe0
3870
3030
ef70
fff0
f9f0
f870
f3e0
ffe0
dee0
c0e0
c380
ff00
7e00
0000
0000
0000
0000
0000
ENDCHAR
STARTCHAR FEMININE ORDINAL INDICATOR
ENCODING 170
SWIDTH 500 0
DWIDTH 12 0
BBX 12 24 0 -2
BITMAP
07e0
0ff0
0e70
03f0
0fe0
1ce0
1fe0
0fe0
0000
3fc0
3fc0
0000
0000
0000
0000
0000
0000
0000
0000
0000
0000
0000
0000
0000
ENDCHAR
STARTCHAR LEFT ANGLE QUOTATION MARK
ENCODING 171
SWIDTH 500 0
DWIDTH 12 0
BBX 12 24 0 -2
BITMAP
0000
0000
0000
0000
03b8
0770
0770
0ee0
1dc0
3b80
3b80
7700
ee00
7700
7700
3b80
7700
3b80
3b80
1dc0
0000
0000
0000
0000
ENDCHAR
STARTCHAR NOT SIGN
ENCODING 172
SWIDTH 500 0
DWIDTH 12 0
BBX 12 24 0 -2
BITMAP
0000
0000
0000
0000
0000
0000
0000
0000
0000
0000
0000
7ff0
ffe0
00e0
00e0
00e0
0000
0000
0000
0000
0000
0000
0000
0000
ENDCHAR
STARTCHAR SOFT HYPHEN
ENCODING 173
SWIDTH 500 0
DWIDTH 12 0
BBX 12 24 0 -2
BITMAP
0000
0000
0000
0000
0000
0000
0000
0000
0000
0000
0000
0000
ffe0
ffe0
0000
0000
0000
0000
0000
0000
0000
0000
0000
0000
ENDCHAR
STARTCHAR REGISTERED TRADE MARK SIGN
ENCODING 174
SWIDTH 500 0
DWIDTH 12 0
BBX 12 24 0 -2
BITMAP
0000
0000
0000
0000
0fc0
1fe0
3cf0
3870
ff70
dff0
d9f0
df70
bee0
b3e0
f3e0
e1e0
e780
ff00
7e00
0000
0000
0000
0000
0000
ENDCHAR
STARTCHAR MACRON
ENCODING 175
SWIDTH 500 0
DWIDTH 12 0
BBX 12 24 0 -2
BITMAP
1ffc
1ffc
0000
0000
0000
0000
0000
0000
0000
0000
0000
0000
0000
0000
0000
0000
0000
0000
0000
0000
0000
0000
0000
0000
ENDCHAR
STARTCHAR DEGREE SIGN, RING ABOVE
ENCODING 176
SWIDTH 500 0
DWIDTH 12 0
BBX 12 24 0 -2
BITMAP
01e0
03f0
03f0
01e0
0000
0000
0000
0000
0000
0000
0000
0000
0000
0000
0000
0000
0000
0000
0000
0000
0000
0000
0000
0000
ENDCHAR
STARTCHAR PLUS-MINUS SIGN
ENCODING 177
SWIDTH 500 0
DWIDTH 12 0
BBX 12 24 0 -2
BITMAP
0000
0000
0000
0000
0000
0000
0380
0380
0700
3fe0
3fe0
0700
0e00
0e00
0000
0000
ff80
ff80
0000
0000
0000
0000
0000
0000
ENDCHAR
STARTCHAR SUPERSCRIPT TWO
ENCODING 178
SWIDTH 500 0
DWIDTH 12 0
BBX 12 24 0 -2
BITMAP
03f0
07f8
0738
0078
01e0
03c0
0780
0f00
1fe0
1fe0
0000
0000
0000
0000
0000
0000
0000
0000
0000
0000
0000
0000
0000
0000
ENDCHAR
STARTCHAR SUPERSCRIPT THREE
ENCODING 179
SWIDTH 500 0
DWIDTH 12 0
BBX 12 24 0 -2
BITMAP
03f0
07f8
0738
0038
03f0
03f0
0070
0e70
1fe0
0fc0
0000
0000
0000
0000
0000
0000
0000
0000
0000
0000
0000
0000
0000
0000
ENDCHAR
STARTCHAR ACUTE ACCENT
ENCODING 180
SWIDTH 500 0
DWIDTH 12 0
BBX 12 24 0 -2
BITMAP
00e0
01e0
0380
0000
0000
0000
0000
0000
0000
0000
0000
0000
0000
0000
0000
0000
0000
0000
0000
0000
0000
0000
0000
0000
ENDCHAR
STARTCHAR MICRO SIGN
ENCODING 181
SWIDTH 500 0
DWIDTH 12 0
BBX 12 24 0 -2
BITMAP
0000
0000
0000
0000
0000
0000
0000
0000
0000
0770
0770
0f70
0ee0
0ee0
1de0
1dc0
3fc0
3fc0
71e0
7000
7000
e000
e000
e000
ENDCHAR
STARTCHAR PILCROW SIGN
ENCODING 182
SWIDTH 500 0
DWIDTH 12 0
BBX 12 24 0 -2
BITMAP
0000
0000
0000
0000
0000
0ff0
1fb0
3fb0
7f60
7f60
7f60
3ee0
3ec0
02c0
02c0
05c0
0580
0580
0780
0000
0000
0000
0000
0000
ENDCHAR
STARTCHAR MIDDLE DOT
ENCODING 183
SWIDTH 500 0
DWIDTH 12 0
BBX 12 24 0 -2
BITMAP
0000
0000
0000
0000
0000
0000
0000
0000
0000
0000
0700
0f80
1f00
0e00
0000
0000
0000
0000
0000
0000
0000
0000
0000
0000
ENDCHAR
STARTCHAR CEDILLA
ENCODING 184
SWIDTH 500 0
DWIDTH 12 0
BBX 12 24 0 -2
BITMAP
0000
0000
0000
0000
0000
0000
0000
0000
0000
0000
0000
0000
0000
0000
0000
0000
0000
0000
1c00
1c00
1e00
0700
3f00
3e00
ENDCHAR
STARTCHAR SUPERSCRIPT ONE
ENCODING 185
SWIDTH 500 0
DWIDTH 12 0
BBX 12 24 0 -2
BITMAP
01c0
03c0
07c0
01c0
0380
0380
0380
0380
1fc0
1fc0
0000
0000
0000
0000
0000
0000
0000
0000
0000
0000
0000
0000
0000
0000
ENDCHAR
STARTCHAR MASCULINE ORDINAL INDICATOR
ENCODING 186
SWIDTH 500 0
DWIDTH 12 0
BBX 12 24 0 -2
BITMAP
03f0
07f8
0738
0738
0e70
0e70
0ff0
07e0
0000
1fe0
1fe0
0000
0000
0000
0000
0000
0000
0000
0000
0000
0000
0000
0000
0000
ENDCHAR
STARTCHAR RIGHT ANGLE QUOTATION MARK
ENCODING 187
SWIDTH 500 0
DWIDTH 12 0
BBX 12 24 0 -2
BITMAP
0000
0000
0000
0000
3b80
1dc0
1dc0
0ee0
1dc0
0ee0
0ee0
0770
0ee0
1dc0
1dc0
3b80
7700
ee00
ee00
dc00
0000
0000
0000
0000
ENDCHAR
STARTCHAR VULGAR FRACTION ONE QUARTER
ENCODING 188
SWIDTH 500 0
DWIDTH 12 0
BBX 12 24 0 -2
BITMAP
0000
0000
0700
0f00
0e00
0e00
0e00
0e38
3ef0
3fe0
03c0
0780
1e00
3dc0
7bc0
f7c0
df80
1fc0
1fc0
0380
0380
0000
0000
0000
ENDCHAR
STARTCHAR VULGAR FRACTION ONE HALF
ENCODING 189
SWIDTH 500 0
DWIDTH 12 0
BBX 12 24 0 -2
BITMAP
0000
0000
0700
0f00
0e00
0e00
0e00
0e38
3ef0
3fe0
03c0
0780
1e00
3fc0
7fe0
f7e0
c1c0
0380
0700
0fc0
0fc0
0000
0000
0000
ENDCHAR
STARTCHAR VULGAR FRACTION THREE QUARTERS
ENCODING 190
SWIDTH 500 0
DWIDTH 12 0
BBX 12 24 0 -2
BITMAP
0000
0000
0f80
0fc0
0380
0f00
0f00
03b8
3ff0
3fe0
03c0
0780
1e00
3dc0
7bc0
f7c0
df80
1fc0
1fc0
0380
0380
0000
0000
0000
ENDCHAR
STARTCHAR INVERTED QUESTION MARK
ENCODING 191
SWIDTH 500 0
DWIDTH 12 0
BBX 12 24 0 -2
BITMAP
0000
0000
0000
0000
0380
07c0
0380
0000
0000
0700
0700
0700
1c00
3800
7000
70c0
f780
7f00
3e00
0000
0000
0000
0000
0000
ENDCHAR
STARTCHAR CAPITAL LETTER A WITH GRAVE ACCENT
ENCODING 192
SWIDTH 500 0
DWIDTH 12 0
BBX 12 24 0 -2
BITMAP
01c0
01e0
0070
0000
0000
07e0
0ff0
1e70
3870
3870
3870
3ff0
7fe0
70e0
70e0
70e0
e1c0
e1c0
e1c0
0000
0000
0000
0000
0000
ENDCHAR
STARTCHAR CAPITAL LETTER A WITH ACUTE ACCENT
ENCODING 193
SWIDTH 500 0
DWIDTH 12 0
BBX 12 24 0 -2
BITMAP
00e0
01e0
0380
0000
0000
07e0
0ff0
1e70
3870
3870
3870
3ff0
7fe0
70e0
70e0
70e0
e1c0
e1c0
e1c0
0000
0000
0000
0000
0000
ENDCHAR
STARTCHAR CAPITAL LETTER A WITH CIRCUMFLEX ACCENT
ENCODING 194
SWIDTH 500 0
DWIDTH 12 0
BBX 12 24 0 -2
BITMAP
03c0
07e0
0e70
0000
0000
07e0
0ff0
1e70
3870
3870
3870
3ff0
7fe0
70e0
70e0
70e0
e1c0
61c0
e1c0
0000
0000
0000
0000
0000
ENDCHAR
STARTCHAR CAPITAL LETTER A WITH TILDE
ENCODING 195
SWIDTH 500 0
DWIDTH 12 0
BBX 12 24 0 -2
BITMAP
0f10
1fb0
19f0
0000
0000
07e0
0ff0
1e70
3870
3870
3870
3ff0
7fe0
70e0
70e0
70e0
e1c0
e1c0
e1c0
0000
0000
0000
0000
0000
ENDCHAR
STARTCHAR CAPITAL LETTER A WITH DIAERESIS
ENCODING 196
SWIDTH 500 0
DWIDTH 12 0
BBX 12 24 0 -2
BITMAP
0000
0e70
0e70
0000
0000
07e0
0ff0
1e70
3870
3870
3870
3ff0
7fe0
70e0
70e0
70e0
e1c0
e1c0
e1c0
0000
0000
0000
0000
0000
ENDCHAR
STARTCHAR CAPITAL LETTER A WITH RING ABOVE
ENCODING 197
SWIDTH 500 0
DWIDTH 12 0
BBX 12 24 0 -2
BITMAP
03c0
07e0
0660
07e0
03c0
07e0
0ff0
1e70
3870
3870
3870
3ff0
7fe0
70e0
70e0
70e0
e1c0
e1c0
e1c0
0000
0000
0000
0000
0000
ENDCHAR
STARTCHAR CAPITAL DIPHTHONG A WITH E
ENCODING 198
SWIDTH 500 0
DWIDTH 12 0
BBX 12 24 0 -2
BITMAP
0000
0000
0000
0000
0000
0ff8
0ff8
1dc0
3b80
7380
73f0
7ff0
ff00
e700
e700
e700
ce00
cfc0
cfc0
0000
0000
0000
0000
0000
ENDCHAR
STARTCHAR CAPITAL LETTER C WITH CEDILLA
ENCODING 199
SWIDTH 500 0
DWIDTH 12 0
BBX 12 24 0 -2
BITMAP
0000
0000
0000
0000
0000
0fc0
1fe0
3cf0
70e0
7000
7000
7000
e000
e000
e000
e1c0
e780
ff00
7e00
3800
3c00
0e00
7e00
7c00
ENDCHAR
STARTCHAR CAPITAL LETTER E WITH GRAVE ACCENT
ENCODING 200
SWIDTH 500 0
DWIDTH 12 0
BBX 12 24 0 -2
BITMAP
0380
03c0
00e0
0000
0000
1ff0
1ff0
1c00
3800
3800
3800
3fc0
7f80
7000
7000
7000
e000
ffc0
ffc0
0000
0000
0000
0000
0000
ENDCHAR
STARTCHAR CAPITAL LETTER E WITH ACUTE ACCENT
ENCODING 201
SWIDTH 500 0
DWIDTH 12 0
BBX 12 24 0 -2
BITMAP
01c0
03c0
0700
0000
0000
1ff0
1ff0
1c00
3800
3800
3800
3fc0
7f80
7000
7000
7000
e000
ffc0
ffc0
0000
0000
0000
0000
0000
ENDCHAR
STARTCHAR CAPITAL LETTER E WITH CIRCUMFLEX ACCENT
ENCODING 202
SWIDTH 500 0
DWIDTH 12 0
BBX 12 24 0 -2
BITMAP
03c0
07e0
0e70
0000
0000
1ff0
1ff0
1c00
3800
3800
3800
3fc0
7f80
7000
7000
7000
e000
ffc0
ffc0
0000
0000
0000
0000
0000
ENDCHAR
STARTCHAR CAPITAL LETTER E WITH DIAERESIS
ENCODING 203
SWIDTH 500 0
DWIDTH 12 0
BBX 12 24 0 -2
BITMAP
0000
0e70
0e70
0000
0000
1ff0
1ff0
1c00
3800
3800
3800
3fc0
7f80
7000
7000
7000
e000
ffc0
ffc0
0000
0000
0000
0000
0000
ENDCHAR
STARTCHAR CAPITAL LETTER I WITH GRAVE ACCENT
ENCODING 204
SWIDTH 500 0
DWIDTH 12 0
BBX 12 24 0 -2
BITMAP
0380
03c0
00e0
0000
0000
0fe0
0fe0
0380
0700
0700
0700
0700
0e00
0e00
0e00
0e00
1c00
7f00
7f00
0000
0000
0000
0000
0000
ENDCHAR
STARTCHAR CAPITAL LETTER I WITH ACUTE ACCENT
ENCODING 205
SWIDTH 500 0
DWIDTH 12 0
BBX 12 24 0 -2
BITMAP
00e0
01e0
0380
0000
0000
0fe0
0fe0
0380
0700
0700
0700
0700
0e00
0e00
0e00
0e00
1c00
7f00
7f00
0000
0000
0000
0000
0000
ENDCHAR
STARTCHAR CAPITAL LETTER I WITH CIRCUMFLEX ACCENT
ENCODING 206
SWIDTH 500 0
DWIDTH 12 0
BBX 12 24 0 -2
BITMAP
01c0
03e0
0770
0000
0000
0fe0
0fe0
0380
0700
0700
0700
0700
0e00
0e00
0e00
0e00
1c00
7f00
7f00
0000
0000
0000
0000
0000
ENDCHAR
STARTCHAR CAPITAL LETTER I WITH DIAERESIS
ENCODING 207
SWIDTH 500 0
DWIDTH 12 0
BBX 12 24 0 -2
BITMAP
0000
0770
0770
0000
0000
0fe0
0fe0
0380
0700
0700
0700
0700
0e00
0e00
0e00
0e00
1c00
7f00
7f00
0000
0000
0000
0000
0000
ENDCHAR
STARTCHAR CAPITAL ICELANDIC LETTER ETH
ENCODING 208
SWIDTH 500 0
DWIDTH 12 0
BBX 12 24 0 -2
BITMAP
0000
0000
0000
0000
0000
1fe0
1ff0
1c70
3870
3870
3870
7f70
7ee0
70e0
70e0
70e0
e3c0
ff80
ff00
0000
0000
0000
0000
0000
ENDCHAR
STARTCHAR CAPITAL LETTER N WITH TILDE
ENCODING 209
SWIDTH 500 0
DWIDTH 12 0
BBX 12 24 0 -2
BITMAP
0f10
1fb0
19f0
0000
0000
3870
3c70
3c70
7ce0
7ce0
7ee0
7ee0
efc0
efc0
e7c0
e7c0
c780
c780
c380
0000
0000
0000
0000
0000
ENDCHAR
STARTCHAR CAPITAL LETTER O WITH GRAVE ACCENT
ENCODING 210
SWIDTH 500 0
DWIDTH 12 0
BBX 12 24 0 -2
BITMAP
0380
03c0
00e0
0000
0000
0fc0
1fe0
3cf0
70e0
70e0
70e0
70e0
e1c0
e1c0
e1c0
e1c0
e780
ff00
7e00
0000
0000
0000
0000
0000
ENDCHAR
STARTCHAR CAPITAL LETTER O WITH ACUTE ACCENT
ENCODING 211
SWIDTH 500 0
DWIDTH 12 0
BBX 12 24 0 -2
BITMAP
01c0
03c0
0700
0000
0000
0fc0
1fe0
3cf0
70e0
70e0
70e0
70e0
e1c0
e1c0
e1c0
e1c0
e780
ff00
7e00
0000
0000
0000
0000
0000
ENDCHAR
STARTCHAR CAPITAL LETTER O WITH CIRCUMFLEX ACCENT
ENCODING 212
SWIDTH 500 0
DWIDTH 12 0
BBX 12 24 0 -2
BITMAP
03c0
07e0
0e70
0000
0000
0fc0
1fe0
3cf0
70e0
70e0
70e0
70e0
e1c0
e1c0
e1c0
e1c0
e780
ff00
7e00
0000
0000
0000
0000
0000
ENDCHAR
STARTCHAR CAPITAL LETTER O WITH TILDE
ENCODING 213
SWIDTH 500 0
DWIDTH 12 0
BBX 12 24 0 -2
BITMAP
0f18
1fb8
19f0
0000
0000
0fc0
1fe0
3cf0
70e0
70e0
70e0
70e0
e1c0
e1c0
e1c0
e1c0
e780
ff00
7e00
0000
0000
0000
0000
0000
ENDCHAR
STARTCHAR CAPITAL LETTER O WITH DIAERESIS
ENCODING 214
SWIDTH 500 0
DWIDTH 12 0
BBX 12 24 0 -2
BITMAP
0000
0e70
0e70
0000
0000
0fc0
1fe0
3cf0
70e0
70e0
70e0
70e0
e1c0
e1c0
e1c0
e1c0
e780
ff00
7e00
0000
0000
0000
0000
0000
ENDCHAR
STARTCHAR MULTIPLICATION SIGN
ENCODING 215
SWIDTH 500 0
DWIDTH 12 0
BBX 12 24 0 -2
BITMAP
0000
0000
0000
0000
0000
0000
0000
0000
70e0
79e0
3fc0
1f80
1e00
3f00
7f80
f3c0
c380
0000
0000
0000
0000
0000
0000
0000
ENDCHAR
STARTCHAR CAPITAL LETTER O WITH OBLIQUE STROKE
ENCODING 216
SWIDTH 500 0
DWIDTH 12 0
BBX 12 24 0 -2
BITMAP
0000
0000
0000
0000
0000
0ff0
1ff0
3cf0
71e0
73e0
73e0
77e0
fdc0
f9c0
f9c0
f1c0
e780
ff00
fe00
0000
0000
0000
0000
0000
ENDCHAR
STARTCHAR CAPITAL LETTER U WITH GRAVE ACCENT
ENCODING 217
SWIDTH 500 0
DWIDTH 12 0
BBX 12 24 0 -2
BITMAP
0380
03c0
00e0
0000
0000
3870
3870
3870
70e0
70e0
70e0
70e0
e1c0
e1c0
e1c0
e1c0
e780
ff00
7e00
0000
0000
0000
0000
0000
ENDCHAR
STARTCHAR CAPITAL LETTER U WITH ACUTE ACCENT
ENCODING 218
SWIDTH 500 0
DWIDTH 12 0
BBX 12 24 0 -2
BITMAP
01c0
03c0
0700
0000
0000
3870
3870
3870
70e0
70e0
70e0
70e0
e1c0
e1c0
e1c0
e1c0
e780
ff00
7e00
0000
0000
0000
0000
0000
ENDCHAR
STARTCHAR CAPITAL LETTER U WITH CIRCUMFLEX ACCENT
ENCODING 219
SWIDTH 500 0
DWIDTH 12 0
BBX 12 24 0 -2
BITMAP
03c0
07e0
0e70
0000
0000
3870
3870
3870
70e0
70e0
70e0
70e0
e1c0
e1c0
e1c0
e1c0
e780
ff00
7e00
0000
0000
0000
0000
0000
ENDCHAR
STARTCHAR CAPITAL LETTER U WITH DIAERESIS
ENCODING 220
SWIDTH 500 0
DWIDTH 12 0
BBX 12 24 0 -2
BITMAP
0000
0e70
0e70
0000
0000
3870
3870
3870
70e0
70e0
70e0
70e0
e1c0
e1c0
e1c0
e1c0
e780
ff00
7e00
0000
0000
0000
0000
0000
ENDCHAR
STARTCHAR CAPITAL LETTER Y WITH ACUTE ACCENT
ENCODING 221
SWIDTH 500 0
DWIDTH 12 0
BBX 12 24 0 -2
BITMAP
01c0
03c0
0700
0000
0000
7070
7070
38e0
71c0
3b80
3f80
1f00
1c00
1c00
1c00
1c00
3800
3800
3800
0000
0000
0000
0000
0000
ENDCHAR
STARTCHAR CAPITAL ICELANDIC LETTER THORN
ENCODING 222
SWIDTH 500 0
DWIDTH 12 0
BBX 12 24 0 -2
BITMAP
0000
0000
0000
0000
0000
1ce0
1df0
1fb8
3e70
3c70
3870
3870
78e0
7ce0
7ee0
77c0
e700
e000
e000
c000
8000
0000
0000
0000
ENDCHAR
STARTCHAR SMALL GERMAN LETTER SHARP s
ENCODING 223
SWIDTH 500 0
DWIDTH 12 0
BBX 12 24 0 -2
BITMAP
0000
0000
0000
0000
0000
07e0
0ff0
1e70
3870
3870
38f0
3be0
77e0
71e0
70e0
70e0
e3c0
ef80
ef00
0000
0000
0000
0000
0000
ENDCHAR
STARTCHAR SMALL LETTER a WITH GRAVE ACCENT
ENCODING 224
SWIDTH 500 0
DWIDTH 12 0
BBX 12 24 0 -2
BITMAP
0000
0000
0000
01c0
03c0
00e0
0000
0000
07c0
0fe0
1c70
0070
0fe0
3fe0
70e0
f1e0
e7c0
ffc0
7dc0
0000
0000
0000
0000
0000
ENDCHAR
STARTCHAR SMALL LETTER a WITH ACUTE ACCENT
ENCODING 225
SWIDTH 500 0
DWIDTH 12 0
BBX 12 24 0 -2
BITMAP
0000
0000
0000
0070
01e0
0380
0000
0000
07c0
0fe0
1c70
0070
0fe0
3fe0
70e0
f1e0
e7c0
ffc0
7dc0
0000
0000
0000
0000
0000
ENDCHAR
STARTCHAR SMALL LETTER a WITH CIRCUMFLEX ACCENT
ENCODING 226
SWIDTH 500 0
DWIDTH 12 0
BBX 12 24 0 -2
BITMAP
0000
0000
0000
01e0
07e0
0e70
0000
0000
07c0
0fe0
1c70
0070
0fe0
3fe0
70e0
f1e0
e7c0
ffc0
7dc0
0000
0000
0000
0000
0000
ENDCHAR
STARTCHAR SMALL LETTER a WITH TILDE
ENCODING 227
SWIDTH 500 0
DWIDTH 12 0
BBX 12 24 0 -2
BITMAP
0000
0000
0000
0f10
3f70
33e0
0000
0000
07c0
0fe0
1c70
0070
0fe0
3fe0
70e0
f1e0
e7c0
ffc0
7dc0
0000
0000
0000
0000
0000
ENDCHAR
STARTCHAR SMALL LETTER a WITH DIAERESIS
ENCODING 228
SWIDTH 500 0
DWIDTH 12 0
BBX 12 24 0 -2
BITMAP
0000
0000
0000
0000
0770
0770
0000
0000
07c0
0fe0
1c70
0070
0fe0
3fe0
70e0
f1e0
e7c0
ffc0
7dc0
0000
0000
0000
0000
0000
ENDCHAR
STARTCHAR SMALL LETTER a WITH RING ABOVE
ENCODING 229
SWIDTH 500 0
DWIDTH 12 0
BBX 12 24 0 -2
BITMAP
0000
0000
0000
03c0
07e0
07e0
03c0
0000
07c0
0fe0
1c70
0070
0fe0
3fe0
70e0
f1e0
e7c0
ffc0
7dc0
0000
0000
0000
0000
0000
ENDCHAR
STARTCHAR SMALL DIPHTHONG a WITH e
ENCODING 230
SWIDTH 500 0
DWIDTH 12 0
BBX 12 24 0 -2
BITMAP
0000
0000
0000
0000
0000
0000
0000
0000
3de0
7ff0
6770
0770
3fe0
7fc0
ee00
ee00
ddc0
ffc0
ff80
0000
0000
0000
0000
0000
ENDCHAR
STARTCHAR SMALL LETTER c WITH CEDILLA
ENCODING 231
SWIDTH 500 0
DWIDTH 12 0
BBX 12 24 0 -2
BITMAP
0000
0000
0000
0000
0000
0000
0000
0000
0000
0fc0
3fc0
78e0
e1c0
e000
e000
e000
e380
ff80
7f00
3800
3c00
0e00
7e00
7c00
ENDCHAR
STARTCHAR SMALL LETTER e WITH GRAVE ACCENT
ENCODING 232
SWIDTH 500 0
DWIDTH 12 0
BBX 12 24 0 -2
BITMAP
0000
0000
0000
0000
0380
03c0
00e0
0000
0000
0fc0
1fe0
3c70
70e0
7fe0
ffe0
f000
e1c0
7fc0
3f80
0000
0000
0000
0000
0000
ENDCHAR
STARTCHAR SMALL LETTER e WITH ACUTE ACCENT
ENCODING 233
SWIDTH 500 0
DWIDTH 12 0
BBX 12 24 0 -2
BITMAP
0000
0000
0000
0000
01c0
03c0
0700
0000
0000
0fc0
1fe0
3c70
70e0
7fe0
ffe0
f000
e1c0
7fc0
3f80
0000
0000
0000
0000
0000
ENDCHAR
STARTCHAR SMALL LETTER e WITH CIRCUMFLEX ACCENT
ENCODING 234
SWIDTH 500 0
DWIDTH 12 0
BBX 12 24 0 -2
BITMAP
0000
0000
0000
0000
03c0
07e0
0e70
0000
0000
0fc0
1fe0
3c70
70e0
7fe0
ffe0
f000
e1c0
7fc0
3f80
0000
0000
0000
0000
0000
ENDCHAR
STARTCHAR SMALL LETTER e WITH DIAERESIS
ENCODING 235
SWIDTH 500 0
DWIDTH 12 0
BBX 12 24 0 -2
BITMAP
0000
0000
0000
0000
0000
0e70
0e70
0000
0000
0fc0
1fe0
3c70
70e0
7fe0
ffe0
f000
e1c0
7fc0
3f80
0000
0000
0000
0000
0000
ENDCHAR
STARTCHAR SMALL LETTER i WITH GRAVE ACCENT
ENCODING 236
SWIDTH 500 0
DWIDTH 12 0
BBX 12 24 0 -2
BITMAP
0000
0000
0000
0000
0700
0780
01c0
0000
0000
0700
0700
0700
0e00
0e00
0e00
0e00
1c00
1c00
1c00
0000
0000
0000
0000
0000
ENDCHAR
STARTCHAR SMALL LETTER i WITH ACUTE ACCENT
ENCODING 237
SWIDTH 500 0
DWIDTH 12 0
BBX 12 24 0 -2
BITMAP
0000
0000
0000
0000
01c0
03c0
0700
0000
0000
0700
0700
0700
0e00
0e00
0e00
0e00
1c00
1c00
1c00
0000
0000
0000
0000
0000
ENDCHAR
STARTCHAR SMALL LETTER i WITH CIRCUMFLEX ACCENT
ENCODING 238
SWIDTH 500 0
DWIDTH 12 0
BBX 12 24 0 -2
BITMAP
0000
0000
0000
0000
0380
07c0
0ee0
0000
0000
0700
0700
0700
0e00
0e00
0e00
0e00
1c00
1c00
1c00
0000
0000
0000
0000
0000
ENDCHAR
STARTCHAR SMALL LETTER i WITH DIAERESIS
ENCODING 239
SWIDTH 500 0
DWIDTH 12 0
BBX 12 24 0 -2
BITMAP
0000
0000
0000
0000
0000
0ee0
0ee0
0000
0000
0700
0700
0700
0e00
0e00
0e00
0e00
1c00
1c00
1c00
0000
0000
0000
0000
0000
ENDCHAR
STARTCHAR SMALL ICELANDIC LETTER ETH
ENCODING 240
SWIDTH 500 0
DWIDTH 12 0
BBX 12 24 0 -2
BITMAP
0000
0000
0000
0000
0000
1ef0
1ff0
03c0
1fc0
7de0
70e0
1fe0
7fc0
f1c0
e1c0
e1c0
e780
ff00
7e00
0000
0000
0000
0000
0000
ENDCHAR
STARTCHAR SMALL LETTER n WITH TILDE
ENCODING 241
SWIDTH 500 0
DWIDTH 12 0
BBX 12 24 0 -2
BITMAP
0000
0000
0000
0000
1e30
3f70
33e0
0000
0000
3bc0
3fe0
3e70
78e0
70e0
70e0
70e0
e1c0
e1c0
e1c0
0000
0000
0000
0000
0000
ENDCHAR
STARTCHAR SMALL LETTER o WITH GRAVE ACCENT
ENCODING 242
SWIDTH 500 0
DWIDTH 12 0
BBX 12 24 0 -2
BITMAP
0000
0000
0000
0000
0380
03c0
00e0
0000
0000
0fc0
1fe0
3cf0
70e0
70e0
70e0
70e0
73c0
7f80
3f00
0000
0000
0000
0000
0000
ENDCHAR
STARTCHAR SMALL LETTER o WITH ACUTE ACCENT
ENCODING 243
SWIDTH 500 0
DWIDTH 12 0
BBX 12 24 0 -2
BITMAP
0000
0000
0000
0000
01c0
03c0
0700
0000
0000
0fc0
1fe0
3cf0
70e0
70e0
70e0
70e0
73c0
7f80
3f00
0000
0000
0000
0000
0000
ENDCHAR
STARTCHAR SMALL LETTER o WITH CIRCUMFLEX ACCENT
ENCODING 244
SWIDTH 500 0
DWIDTH 12 0
BBX 12 24 0 -2
BITMAP
0000
0000
0000
0000
03c0
07e0
0e70
0000
0000
0fc0
1fe0
3cf0
70e0
70e0
70e0
70e0
73c0
7f80
3f00
0000
0000
0000
0000
0000
ENDCHAR
STARTCHAR SMALL LETTER o WITH TILDE
ENCODING 245
SWIDTH 500 0
DWIDTH 12 0
BBX 12 24 0 -2
BITMAP
0000
0000
0000
0000
1e30
3f70
33e0
0000
0000
0fc0
1fe0
3cf0
70e0
70e0
70e0
70e0
73c0
7f80
3f00
0000
0000
0000
0000
0000
ENDCHAR
STARTCHAR SMALL LETTER o WITH DIAERESIS
ENCODING 246
SWIDTH 500 0
DWIDTH 12 0
BBX 12 24 0 -2
BITMAP
0000
0000
0000
0000
0000
0e70
0e70
0000
0000
0fc0
1fe0
3cf0
70e0
70e0
70e0
70e0
73c0
7f80
3f00
0000
0000
0000
0000
0000
ENDCHAR
STARTCHAR DIVISION SIGN
ENCODING 247
SWIDTH 500 0
DWIDTH 12 0
BBX 12 24 0 -2
BITMAP
0000
0000
0000
0000
0000
0000
0000
0380
0f80
0700
0000
7ff0
ffe0
0000
0e00
1f00
1c00
0000
0000
0000
0000
0000
0000
0000
ENDCHAR
STARTCHAR SMALL LETTER o WITH OBLIQUE STROKE
ENCODING 248
SWIDTH 500 0
DWIDTH 12 0
BBX 12 24 0 -2
BITMAP
0000
0000
0000
0000
0000
0000
0000
0000
0000
1fe0
3fe0
7bc0
efc0
efc0
ffc0
fdc0
f780
ff00
fe00
0000
0000
0000
0000
0000
ENDCHAR
STARTCHAR SMALL LETTER u WITH GRAVE ACCENT
ENCODING 249
SWIDTH 500 0
DWIDTH 12 0
BBX 12 24 0 -2
BITMAP
0000
0000
0000
0000
0380
03c0
00e0
0000
0000
3870
3870
3870
70e0
70e0
70e0
71e0
77c0
7fc0
3dc0
0000
0000
0000
0000
0000
ENDCHAR
STARTCHAR SMALL LETTER u WITH ACUTE ACCENT
ENCODING 250
SWIDTH 500 0
DWIDTH 12 0
BBX 12 24 0 -2
BITMAP
0000
0000
0000
0000
01c0
03c0
0700
0000
0000
3870
3870
3870
70e0
70e0
70e0
71e0
77c0
7fc0
3dc0
0000
0000
0000
0000
0000
ENDCHAR
STARTCHAR SMALL LETTER u WITH CIRCUMFLEX ACCENT
ENCODING 251
SWIDTH 500 0
DWIDTH 12 0
BBX 12 24 0 -2
BITMAP
0000
0000
0000
0000
03c0
07e0
0e70
0000
0000
3870
3870
3870
70e0
70e0
70e0
71e0
77c0
7fc0
3dc0
0000
0000
0000
0000
0000
ENDCHAR
STARTCHAR SMALL LETTER u WITH DIAERESIS
ENCODING 252
SWIDTH 500 0
DWIDTH 12 0
BBX 12 24 0 -2
BITMAP
0000
0000
0000
0000
0000
0e70
0e70
0000
0000
3870
3870
3870
70e0
70e0
70e0
71e0
77c0
7fc0
3dc0
0000
0000
0000
0000
0000
ENDCHAR
STARTCHAR SMALL LETTER y WITH ACUTE ACCENT
ENCODING 253
SWIDTH 500 0
DWIDTH 12 0
BBX 12 24 0 -2
BITMAP
0000
0000
0000
0000
00e0
01e0
0380
0000
0000
3870
3870
3870
70e0
70e0
70e0
70e0
73c0
7fc0
3fc0
01c0
0380
0780
ff00
7e00
ENDCHAR
STARTCHAR SMALL ICELANDIC LETTER THORN
ENCODING 254
SWIDTH 500 0
DWIDTH 12 0
BBX 12 24 0 -2
BITMAP
0000
0000
0000
0000
0000
0e00
0e00
0e00
1c00
1de0
1ff0
1f70
3c70
3870
3870
38f0
73c0
7f80
7f00
7000
e000
e000
e000
e000
ENDCHAR
STARTCHAR SMALL LETTER y WITH DIAERESIS
ENCODING 255
SWIDTH 500 0
DWIDTH 12 0
BBX 12 24 0 -2
BITMAP
0000
0000
0000
0000
0000
0e70
0e70
0000
0000
3870
3870
3870
70e0
70e0
70e0
70e0
73c0
7fc0
3fc0
01c0
03c0
0780
ff00
7e00
ENDCHAR
ENDFONT
